<?xml version="1.0" encoding="UTF-8"?>
<svg id="Layer_2" data-name="Layer 2" xmlns="http://www.w3.org/2000/svg" viewBox="0 0 174.38 174.38">
  <defs>
    <style>
      .cls-1 {
        fill: #d7dbe6;
      }
    </style>
  </defs>
  <g id="Layer_1-2" data-name="Layer 1">
    <path class="cls-1" d="M87.19,0c14.25,0,26.84,2.27,37.79,6.82,10.94,4.54,20.12,10.85,27.54,18.91,7.37,8.01,12.85,17.3,16.45,27.87,3.6,10.57,5.4,21.76,5.4,33.59s-1.8,22.96-5.4,33.55c-3.6,10.59-9.09,19.9-16.45,27.91-7.42,8.07-16.6,14.37-27.54,18.91-10.94,4.54-23.54,6.82-37.79,6.82s-26.85-2.27-37.79-6.82c-10.94-4.54-20.12-10.85-27.54-18.91-7.37-8.01-12.85-17.31-16.45-27.91C1.8,110.15,0,98.96,0,87.19s1.8-23.03,5.4-33.59c3.6-10.57,9.09-19.85,16.45-27.87,7.42-8.07,16.6-14.37,27.54-18.91C60.34,2.27,72.94,0,87.19,0ZM11.61,87.19c0,10.65,1.58,20.57,4.76,29.76,3.17,9.2,7.85,17.15,14.03,23.87,6.18,6.67,13.98,11.99,23.39,15.97,9.41,3.98,20.54,5.97,33.39,5.97s24.05-1.99,33.43-5.97c9.38-3.98,17.17-9.3,23.35-15.97,6.18-6.72,10.86-14.68,14.03-23.87,3.17-9.19,4.76-19.12,4.76-29.76s-1.59-20.57-4.76-29.76c-3.17-9.19-7.85-17.15-14.03-23.87-6.18-6.67-13.97-11.99-23.35-15.97-9.38-3.98-20.53-5.97-33.43-5.97s-23.98,1.99-33.39,5.97c-9.41,3.98-17.21,9.3-23.39,15.97-6.18,6.72-10.86,14.68-14.03,23.87-3.17,9.2-4.76,19.12-4.76,29.76Zm69.61-5.81H29.2c-.11,.97-.16,1.94-.16,2.9s.05,1.94,.16,2.9c.48,4.36,1.95,8.29,4.4,11.82,2.45,3.52,5.54,6.3,9.28,8.35,3.74,2.04,7.86,3.06,12.38,3.06s8.58-1.02,12.34-3.06c3.76-2.04,6.86-4.83,9.28-8.35,2.42-3.52,3.87-7.46,4.36-11.82,.11-.97,.16-1.94,.16-2.9s-.05-1.94-.16-2.9Zm-46.46-19.44c-.27,.75-.77,1.32-1.49,1.69-.73,.38-1.47,.43-2.22,.16-.75-.27-1.3-.77-1.65-1.49s-.42-1.46-.2-2.22c.59-1.67,1.53-3.6,2.82-5.81,1.29-2.2,2.98-4.3,5.08-6.29,2.15-1.99,4.73-3.71,7.74-5.16,3.01-1.45,6.48-2.18,10.41-2.18,.81,0,1.49,.28,2.06,.85s.85,1.25,.85,2.06-.28,1.49-.85,2.06-1.25,.85-2.06,.85c-3.07,0-5.77,.56-8.11,1.69-2.34,1.13-4.34,2.5-6.01,4.11-1.72,1.61-3.12,3.32-4.19,5.12-1.08,1.8-1.8,3.32-2.18,4.56Zm18.31,25.25c.91,2.53,2.49,4.61,4.72,6.25,2.23,1.64,4.77,2.46,7.62,2.46,3.06,0,5.81-.97,8.23-2.9-1.67,3.44-4.14,6.24-7.42,8.39-3.28,2.15-6.94,3.23-10.97,3.23-5.16,0-9.64-1.67-13.43-5-3.79-3.33-6.04-7.47-6.73-12.42h17.99Zm16.05,54.93c-.7,1.45-1.81,2.42-3.35,2.9-1.53,.48-3,.38-4.4-.32-1.45-.7-2.43-1.82-2.94-3.35-.51-1.53-.42-3.02,.28-4.48,.97-1.88,2.66-3.98,5.08-6.29,2.42-2.31,5.57-4.31,9.44-6.01,3.87-1.69,8.52-2.54,13.95-2.54s10.09,.85,13.99,2.54c3.9,1.69,7.04,3.7,9.44,6.01,2.39,2.31,4.07,4.41,5.04,6.29,.7,1.45,.79,2.94,.28,4.48-.51,1.53-1.47,2.65-2.86,3.35-1.45,.7-2.94,.81-4.48,.32-1.53-.48-2.65-1.45-3.35-2.9-.32-.65-1.17-1.65-2.54-3.02s-3.33-2.61-5.89-3.71c-2.55-1.1-5.77-1.65-9.64-1.65s-7.09,.55-9.64,1.65c-2.55,1.1-4.5,2.34-5.85,3.71-1.34,1.37-2.21,2.38-2.58,3.02Zm76.06-60.73h-52.02c-.11,.97-.16,1.94-.16,2.9s.05,1.94,.16,2.9c.48,4.36,1.94,8.29,4.36,11.82,2.42,3.52,5.51,6.3,9.28,8.35,3.76,2.04,7.9,3.06,12.42,3.06s8.58-1.02,12.34-3.06c3.76-2.04,6.86-4.83,9.28-8.35,2.42-3.52,3.87-7.46,4.36-11.82,.11-.97,.16-1.94,.16-2.9s-.05-1.94-.16-2.9Zm-28.15,5.81c.91,2.53,2.49,4.61,4.72,6.25,2.23,1.64,4.77,2.46,7.62,2.46,3.07,0,5.81-.97,8.23-2.9-1.67,3.44-4.14,6.24-7.42,8.39-3.28,2.15-6.94,3.23-10.97,3.23-5.16,0-9.64-1.67-13.43-5-3.79-3.33-6.04-7.47-6.74-12.42h17.99Zm22.58-25.25c.27,.75,.77,1.32,1.49,1.69,.73,.38,1.46,.43,2.22,.16,.75-.27,1.3-.77,1.65-1.49,.35-.73,.42-1.46,.2-2.22-.59-1.67-1.53-3.6-2.82-5.81-1.29-2.2-2.98-4.3-5.08-6.29-2.15-1.99-4.73-3.71-7.74-5.16-3.01-1.45-6.48-2.18-10.41-2.18-.81,0-1.49,.28-2.06,.85s-.85,1.25-.85,2.06,.28,1.49,.85,2.06,1.25,.85,2.06,.85c3.07,0,5.77,.56,8.11,1.69,2.34,1.13,4.34,2.5,6.01,4.11,1.72,1.61,3.12,3.32,4.19,5.12,1.07,1.8,1.8,3.32,2.18,4.56Z"/>
  </g>
</svg>