<?xml version="1.0" encoding="UTF-8"?>
<svg id="Layer_2" data-name="Layer 2" xmlns="http://www.w3.org/2000/svg" viewBox="0 0 114.88 84.85">
  <defs>
    <style>
      .cls-1 {
        fill: #d7dbe6;
      }
    </style>
  </defs>
  <g id="Layer_1-2" data-name="Layer 1">
    <g>
      <path class="cls-1" d="M37.08,1.18c1.64-.46,3.34-.85,5.09-1.18l-8.72,12.46c-2.6,.96-4.99,2.04-7.16,3.23-3.85,2.1-7.05,4.23-9.6,6.38-2.54,2.14-4.48,3.98-5.81,5.51-1.32,1.53-2.06,2.38-2.19,2.55-.75,1.11-1.78,1.78-3.09,2-1.3,.22-2.49-.05-3.55-.8-1.06-.8-1.71-1.84-1.96-3.12-.24-1.28,.01-2.48,.77-3.59,.17-.17,1.03-1.17,2.55-2.99,1.53-1.81,3.79-3.99,6.78-6.54,2.98-2.54,6.71-5.08,11.19-7.6,4.47-2.52,9.7-4.63,15.7-6.31Z"/>
      <path class="cls-1" d="M114.81,28.24c-.22,1.31-.89,2.34-1.99,3.09-.8,.58-1.71,.86-2.73,.86-1.68,0-2.98-.68-3.91-2.06-.14-.17-.86-1.02-2.16-2.55-.98-1.15-2.32-2.47-4.01-3.96l2-2.67c.62-.88,.73-1.81,.33-2.79-.4-.97-1.13-1.46-2.19-1.46h-9.78c-.58-.34-1.18-.68-1.79-1.01-2.94-1.61-6.28-3.02-10.01-4.24V1.39c5.7,1.64,10.7,3.68,14.99,6.1,4.47,2.52,8.19,5.06,11.16,7.6,2.96,2.55,5.22,4.73,6.77,6.54,1.55,1.82,2.39,2.82,2.52,2.99,.75,1.11,1.02,2.32,.8,3.62Z"/>
      <path class="cls-1" d="M49.81,27.96c-2.7,.4-5.19,1.04-7.45,1.91-4.25,1.64-7.77,3.55-10.56,5.74s-4.89,4.15-6.31,5.88c-1.41,1.73-2.17,2.66-2.26,2.79-.75,1.15-1.77,1.87-3.05,2.16-1.28,.29-2.48,.08-3.59-.63-1.1-.71-1.8-1.71-2.09-2.99-.29-1.29-.1-2.48,.57-3.59,.13-.17,.76-1.02,1.89-2.52,1.13-1.51,2.8-3.3,5.01-5.38,1.8-1.69,3.97-3.38,6.51-5.06h19.01c1.34,0,2.12,.56,2.32,1.69Z"/>
      <path class="cls-1" d="M100.4,42.82c-.31,1.28-1.02,2.28-2.13,2.99-.79,.48-1.63,.73-2.52,.73-1.77,0-3.12-.76-4.05-2.26-.13-.18-.9-1.13-2.29-2.86-.43-.53-.94-1.09-1.52-1.67l5.77-7.69c1.84,1.77,3.25,3.32,4.25,4.65,1.13,1.5,1.76,2.35,1.89,2.52,.71,1.11,.91,2.3,.6,3.59Z"/>
      <path class="cls-1" d="M44.85,39.47c1.55-.73,3.22-1.3,5.03-1.7v10.01c-.41,.14-.8,.3-1.18,.48-2.46,1.16-4.48,2.48-6.07,3.99-1.6,1.5-2.79,2.85-3.59,4.05-.8,1.19-1.22,1.86-1.26,1.99-.62,1.15-1.55,1.94-2.79,2.36s-2.46,.32-3.65-.3c-1.15-.57-1.94-1.48-2.36-2.72-.42-1.24-.34-2.46,.23-3.66,.09-.17,.7-1.12,1.83-2.85,1.13-1.73,2.83-3.69,5.11-5.88,2.28-2.19,5.18-4.11,8.7-5.77Z"/>
      <path class="cls-1" d="M85.89,57.63c-.42,1.24-1.21,2.17-2.36,2.79-.71,.31-1.42,.46-2.12,.46-2,0-3.43-.88-4.32-2.66-.04-.08-.46-.73-1.26-1.92-.06-.08-.11-.17-.18-.26l5.91-7.86c.92,1.05,1.67,2.03,2.27,2.94,1.13,1.73,1.74,2.68,1.83,2.85,.57,1.2,.65,2.42,.23,3.66Z"/>
      <path class="cls-1" d="M71.78,70.51c0,3.94-1.41,7.32-4.22,10.13s-6.19,4.21-10.13,4.21-7.37-1.4-10.16-4.21c-2.79-2.81-4.18-6.19-4.18-10.13s1.39-7.38,4.18-10.19c.82-.83,1.69-1.53,2.61-2.11v21.98c0,1.68,.76,2.8,2.29,3.35,1.53,.55,2.78,.14,3.75-1.23l14.1-18.77c1.17,2.08,1.76,4.4,1.76,6.97Z"/>
    </g>
  </g>
</svg>