<?xml version="1.0" encoding="UTF-8"?>
<svg id="Layer_2" data-name="Layer 2" xmlns="http://www.w3.org/2000/svg" viewBox="0 0 185.99 174.38">
  <defs>
    <style>
      .cls-1 {
        fill: #d7dbe6;
      }
    </style>
  </defs>
  <g id="Layer_1-2" data-name="Layer 1">
    <path class="cls-1" d="M8.31,63.96c1.61-7.26,4.03-14.13,7.26-20.61,3.23-6.48,7.26-12.35,12.1-17.62,7.42-8.07,16.6-14.37,27.54-18.91C66.15,2.27,78.75,0,93,0s26.84,2.27,37.79,6.82c10.94,4.54,20.12,10.85,27.54,18.91,4.89,5.27,8.94,11.14,12.14,17.62,3.2,6.48,5.61,13.35,7.22,20.61h2.5c1.61,0,2.98,.56,4.11,1.69,1.13,1.13,1.69,2.5,1.69,4.11s-.57,2.98-1.69,4.11-2.5,1.69-4.11,1.69h-.56c.38,3.76,.56,7.64,.56,11.61,0,11.78-1.8,22.96-5.4,33.55-3.6,10.59-9.09,19.9-16.45,27.91-7.42,8.07-16.6,14.37-27.54,18.91-10.94,4.54-23.54,6.82-37.79,6.82s-26.85-2.27-37.79-6.82c-10.94-4.54-20.12-10.85-27.54-18.91-7.37-8.01-12.85-17.31-16.45-27.91-3.6-10.59-5.4-21.78-5.4-33.55,0-3.92,.19-7.8,.56-11.61h-.56c-1.61,0-2.98-.56-4.11-1.69s-1.69-2.5-1.69-4.11,.57-2.98,1.69-4.11c1.13-1.13,2.5-1.69,4.11-1.69h2.5Zm159.62,11.61h-5.24c-.54,5.43-2.27,10.34-5.2,14.72-2.93,4.38-6.72,7.86-11.37,10.45-4.65,2.58-9.75,3.87-15.28,3.87s-10.7-1.29-15.33-3.87c-4.62-2.58-8.42-6.06-11.37-10.45-2.96-4.38-4.68-9.29-5.16-14.72h-11.86c-.54,5.43-2.27,10.34-5.2,14.72-2.93,4.38-6.72,7.86-11.37,10.45-4.65,2.58-9.75,3.87-15.28,3.87s-10.7-1.29-15.32-3.87c-4.62-2.58-8.42-6.06-11.37-10.45-2.96-4.38-4.68-9.29-5.16-14.72h-5.32c-.43,3.76-.65,7.64-.65,11.61,0,10.65,1.58,20.57,4.76,29.76,3.17,9.2,7.85,17.15,14.03,23.87,6.18,6.67,13.98,11.99,23.39,15.97,9.41,3.98,20.54,5.97,33.39,5.97s24.05-1.99,33.43-5.97c9.38-3.98,17.17-9.3,23.35-15.97,6.18-6.72,10.86-14.68,14.03-23.87,3.17-9.19,4.76-19.12,4.76-29.76,0-3.98-.22-7.85-.65-11.61ZM20.25,63.96h4.19c1.94-6.72,5.73-12.29,11.37-16.7,5.65-4.41,12.12-6.61,19.44-6.61s13.79,2.21,19.44,6.61c5.65,4.41,9.41,9.97,11.29,16.7h14.03c1.88-6.72,5.66-12.29,11.33-16.7,5.67-4.41,12.17-6.61,19.48-6.61s13.79,2.21,19.44,6.61c5.65,4.41,9.41,9.97,11.29,16.7h4.19c-3.06-11.99-8.39-22.13-15.97-30.41-6.18-6.67-13.97-11.99-23.35-15.97-9.38-3.98-20.53-5.97-33.43-5.97s-23.98,1.99-33.39,5.97c-9.41,3.98-17.21,9.3-23.39,15.97-7.58,8.28-12.91,18.42-15.97,30.41Zm21.82-13.95c-3.95,2.37-7.11,5.52-9.48,9.48-2.37,3.95-3.55,8.35-3.55,13.19s1.18,9.17,3.55,13.15c2.37,3.98,5.53,7.14,9.48,9.48,3.95,2.34,8.35,3.51,13.19,3.51s9.17-1.17,13.15-3.51c3.98-2.34,7.14-5.5,9.48-9.48,2.34-3.98,3.51-8.36,3.51-13.15s-1.17-9.24-3.51-13.19-5.5-7.11-9.48-9.48c-3.98-2.37-8.36-3.55-13.15-3.55s-9.24,1.18-13.19,3.55Zm27.22,30.89c-2.31,2.31-5.03,3.47-8.15,3.47s-6-1.16-8.31-3.47c-2.31-2.31-3.47-5.03-3.47-8.15s1.16-5.97,3.47-8.23c2.31-2.26,5.08-3.39,8.31-3.39s5.83,1.13,8.15,3.39c2.31,2.26,3.47,5,3.47,8.23s-1.16,5.83-3.47,8.15Zm-16.94,29.52c0,7.53,1.83,14.37,5.48,20.53,3.66,6.16,8.56,11.06,14.72,14.72,6.16,3.66,12.97,5.48,20.45,5.48s14.37-1.83,20.53-5.48c6.16-3.66,11.06-8.56,14.72-14.72,3.66-6.16,5.48-13,5.48-20.53h-23.31v2.9c0,1.61-.56,2.98-1.69,4.11-1.13,1.13-2.5,1.69-4.11,1.69h-23.23c-1.61,0-2.98-.56-4.11-1.69-1.13-1.13-1.69-2.5-1.69-4.11v-2.9h-23.23ZM117.64,50.05c-3.95,2.34-7.1,5.48-9.44,9.44s-3.51,8.35-3.51,13.19,1.17,9.15,3.51,13.11,5.48,7.11,9.44,9.48c3.95,2.37,8.35,3.55,13.19,3.55s9.15-1.18,13.11-3.55c3.95-2.37,7.11-5.52,9.48-9.48,2.37-3.95,3.55-8.32,3.55-13.11s-1.18-9.24-3.55-13.19c-2.37-3.95-5.53-7.1-9.48-9.44-3.95-2.34-8.32-3.51-13.11-3.51s-9.24,1.17-13.19,3.51Zm15.61,30.85c-2.31,2.31-5.03,3.47-8.15,3.47s-6-1.16-8.31-3.47c-2.31-2.31-3.47-5.03-3.47-8.15s1.16-5.97,3.47-8.23c2.31-2.26,5.08-3.39,8.31-3.39s5.83,1.13,8.15,3.39c2.31,2.26,3.47,5,3.47,8.23s-1.16,5.83-3.47,8.15Z"/>
  </g>
</svg>