<?xml version="1.0" encoding="UTF-8"?>
<svg id="Layer_2" data-name="Layer 2" xmlns="http://www.w3.org/2000/svg" viewBox="0 0 174.38 174.38">
  <defs>
    <style>
      .cls-1 {
        fill: #d7dbe6;
      }
    </style>
  </defs>
  <g id="Layer_1-2" data-name="Layer 1">
    <path class="cls-1" d="M29.2,18.79c-.54,2.96,.27,5.54,2.42,7.74,1.08,1.08,2.34,1.8,3.79,2.18-1.77,1.56-3.44,3.17-5,4.84-6.18,6.72-10.86,14.68-14.03,23.87-3.17,9.2-4.76,19.12-4.76,29.76,0,12.64,2.18,24.09,6.53,34.36-3.28,2.74-5.97,6.13-8.07,10.16-3.39-6.56-5.92-13.6-7.58-21.13-1.67-7.53-2.5-15.33-2.5-23.39,0-11.83,1.8-23.03,5.4-33.59,3.6-10.57,9.09-19.85,16.45-27.87,2.31-2.53,4.76-4.84,7.34-6.94Zm42.83,154.62c-1.13,.65-2.34,.97-3.63,.97h-17.5c-2.85,0-5.94-.11-9.27-.32-3.33-.22-6.8-.93-10.4-2.14-3.6-1.21-7.23-3.29-10.89-6.25-3.6-2.9-6.01-6.51-7.22-10.81-1.21-4.3-1.34-8.7-.4-13.19,.94-4.49,2.81-8.52,5.61-12.1,2.8-3.58,6.37-6.09,10.73-7.54,1.67-.54,2.93-1.9,3.79-4.07,.86-2.18,1.45-4.72,1.77-7.62,.32-2.9,.51-5.67,.56-8.31,0-2.42,.86-4.53,2.58-6.33,1.72-1.8,3.79-2.7,6.21-2.7s4.29,.82,5.93,2.46c1.64,1.64,2.46,3.62,2.46,5.93v17.74h33.39c1.99,0,3.7,.71,5.12,2.14,1.42,1.43,2.14,3.16,2.14,5.2s-.71,3.7-2.14,5.12-3.13,2.14-5.12,2.14h-10.16l1.94,.89c2.58,1.34,3.87,3.47,3.87,6.37s-1.29,5-3.87,6.29l-1.94,.97c1.5,0,2.7,.58,3.59,1.73s1.17,2.46,.85,3.91l-.4,1.53c-.32,1.29-1.01,2.35-2.06,3.19-1.05,.83-2.25,1.25-3.59,1.25h-4.19l1.85,.89c.54,.32,1.05,.67,1.53,1.05,.27,.27,.54,.56,.81,.89,.7,.86,1.18,1.83,1.45,2.9,.11,.54,.16,1.07,.16,1.61,0,2.74-1.18,4.81-3.55,6.21Zm8.91-94.12c-2.72,4.57-6.36,8.21-10.93,10.93-4.57,2.72-9.65,4.07-15.24,4.07s-10.67-1.36-15.24-4.07c-4.57-2.71-8.21-6.36-10.93-10.93-2.72-4.57-4.07-9.65-4.07-15.24s1.36-10.67,4.07-15.24c2.71-4.57,6.36-8.21,10.93-10.93,4.57-2.71,9.65-4.07,15.24-4.07s10.67,1.36,15.24,4.07c4.57,2.72,8.21,6.36,10.93,10.93,2.71,4.57,4.07,9.65,4.07,15.24s-1.36,10.67-4.07,15.24Zm-5.04-27.54c-2.21-3.68-5.15-6.63-8.83-8.83-3.68-2.2-7.78-3.31-12.3-3.31s-8.62,1.1-12.3,3.31c-3.68,2.21-6.63,5.15-8.83,8.83-2.21,3.68-3.31,7.78-3.31,12.3s1.1,8.62,3.31,12.3c2.2,3.68,5.15,6.63,8.83,8.83,3.68,2.21,7.78,3.31,12.3,3.31s8.62-1.1,12.3-3.31c3.68-2.21,6.63-5.15,8.83-8.83,2.2-3.68,3.31-7.78,3.31-12.3s-1.1-8.62-3.31-12.3ZM41.94,14.07c-2.96,1.64-5.03,3.05-6.21,4.23-.54,.54-.81,1.21-.81,2.02s.27,1.51,.81,2.1c.59,.54,1.28,.81,2.06,.81s1.46-.27,2.06-.81c.81-.81,2.34-1.84,4.6-3.11,2.26-1.26,4.89-1.9,7.9-1.9s5.58,.63,7.86,1.9c2.28,1.26,3.8,2.3,4.56,3.11,.59,.54,1.29,.81,2.1,.81s1.48-.27,2.02-.81c.59-.59,.89-1.29,.89-2.1s-.3-1.48-.89-2.02c-1.13-1.18-3.17-2.59-6.13-4.23-2.96-1.64-6.43-2.46-10.4-2.46s-7.45,.82-10.4,2.46Zm18.62,55.21c2.31-2.31,3.47-5.03,3.47-8.14s-1.16-6-3.47-8.31c-2.31-2.31-5.03-3.47-8.15-3.47s-5.97,1.16-8.23,3.47c-2.26,2.31-3.39,5.08-3.39,8.31s1.13,5.83,3.39,8.14c2.26,2.31,5,3.47,8.23,3.47s5.83-1.16,8.15-3.47ZM52.02,5.81c5.16-1.88,10.67-3.32,16.53-4.31,5.86-1,12.07-1.49,18.63-1.49,14.25,0,26.84,2.27,37.79,6.82,10.94,4.54,20.12,10.85,27.54,18.91,7.37,8.01,12.85,17.3,16.45,27.87,3.6,10.57,5.4,21.76,5.4,33.59s-1.8,22.96-5.4,33.55c-3.6,10.59-9.09,19.9-16.45,27.91-7.42,8.07-16.6,14.37-27.54,18.91-10.94,4.54-23.54,6.82-37.79,6.82-2.58,0-5.19-.08-7.82-.24,1.34-2.1,2.02-4.41,2.02-6.94,0-1.29-.19-2.55-.56-3.79,.38-.27,.7-.54,.97-.81,1.83,.11,3.63,.16,5.4,.16,12.9,0,24.05-1.99,33.43-5.97,9.38-3.98,17.17-9.3,23.35-15.97,6.18-6.72,10.86-14.68,14.03-23.87,3.17-9.19,4.76-19.12,4.76-29.76s-1.59-20.57-4.76-29.76c-3.17-9.19-7.85-17.15-14.03-23.87-6.18-6.67-13.97-11.99-23.35-15.97-9.38-3.98-20.53-5.97-33.43-5.97-5.48,0-10.73,.4-15.73,1.21-1.83-1.56-4.41-3.12-7.74-4.68-3.33-1.56-7.13-2.34-11.37-2.34h-.32Zm26.98,99.61c2.39-1.18,5.28-1.48,8.67-.89,3.55,.59,6.18,1.69,7.9,3.31,1.72,1.61,2.98,3.31,3.79,5.08,.7,1.45,1.8,2.45,3.31,2.98,1.5,.54,2.98,.48,4.44-.16,1.45-.7,2.45-1.8,2.98-3.31,.54-1.5,.48-2.98-.16-4.44-1.51-3.23-3.84-6.28-7.02-9.15-3.17-2.88-7.61-4.8-13.31-5.77-3.87-.64-7.38-.59-10.53,.16s-5.86,1.84-8.15,3.27c-2.29,1.43-4.05,2.76-5.28,3.99-1.13,1.13-1.69,2.5-1.69,4.11s.56,2.98,1.69,4.11c1.13,1.13,2.5,1.69,4.11,1.69s2.98-.56,4.11-1.69c1.02-1.02,2.73-2.12,5.12-3.31Zm15.04-57.75c.27,.54,.59,1.05,.97,1.53,.91,1.08,2.04,1.88,3.39,2.42-2.31,3.87-3.47,8.09-3.47,12.66s1.1,8.64,3.31,12.38c2.2,3.74,5.17,6.72,8.91,8.95,3.74,2.23,7.89,3.35,12.46,3.35s8.64-1.12,12.38-3.35c3.74-2.23,6.71-5.21,8.91-8.95,2.2-3.74,3.31-7.86,3.31-12.38s-1.21-8.98-3.63-12.91c1.07-.54,1.99-1.26,2.74-2.18,.54-.7,.99-1.45,1.37-2.26,1.67,2.47,2.98,5.18,3.95,8.11,.97,2.93,1.45,6.01,1.45,9.24,0,5.59-1.37,10.7-4.11,15.32-2.74,4.62-6.43,8.31-11.05,11.05-4.62,2.74-9.73,4.11-15.32,4.11s-10.77-1.37-15.37-4.11c-4.6-2.74-8.27-6.42-11.01-11.05-2.74-4.62-4.11-9.73-4.11-15.32,0-6.02,1.64-11.56,4.92-16.62Zm13.07-10.4c-3.44,1.61-5.86,2.98-7.26,4.11-.59,.48-.93,1.13-1.01,1.94-.08,.81,.15,1.53,.69,2.18,.48,.59,1.13,.93,1.94,1.01,.81,.08,1.5-.15,2.1-.69,.97-.81,2.86-1.87,5.69-3.19,2.82-1.32,6.14-1.98,9.96-1.98s7.06,.66,9.88,1.98c2.82,1.32,4.72,2.38,5.69,3.19,.59,.54,1.29,.77,2.1,.69,.81-.08,1.48-.42,2.02-1.01,.48-.65,.69-1.37,.61-2.18-.08-.81-.42-1.45-1.01-1.94-1.4-1.13-3.82-2.5-7.26-4.11-3.44-1.61-7.45-2.42-12.02-2.42s-8.66,.81-12.1,2.42Zm17.34,32.02c-2.31,2.31-5.03,3.47-8.15,3.47s-6-1.16-8.31-3.47c-2.31-2.31-3.47-5.03-3.47-8.15s1.16-5.97,3.47-8.23c2.31-2.26,5.08-3.39,8.31-3.39s5.83,1.13,8.15,3.39c2.31,2.26,3.47,5,3.47,8.23s-1.16,5.83-3.47,8.15Z"/>
  </g>
</svg>