<?xml version="1.0" encoding="UTF-8"?>
<svg id="Layer_2" data-name="Layer 2" xmlns="http://www.w3.org/2000/svg" viewBox="0 0 174.38 174.38">
  <defs>
    <style>
      .cls-1 {
        fill: #d7dbe6;
      }
    </style>
  </defs>
  <g id="Layer_1-2" data-name="Layer 1">
    <path class="cls-1" d="M49.4,6.82C60.34,2.27,72.94,0,87.19,0s26.84,2.27,37.79,6.82c10.94,4.54,20.12,10.85,27.54,18.91,7.37,8.01,12.85,17.3,16.45,27.87,3.6,10.57,5.4,21.76,5.4,33.59s-1.8,22.96-5.4,33.55c-3.6,10.59-9.09,19.9-16.45,27.91-7.42,8.07-16.6,14.37-27.54,18.91-10.94,4.54-23.54,6.82-37.79,6.82s-26.85-2.27-37.79-6.82c-10.94-4.54-20.12-10.85-27.54-18.91-7.37-8.01-12.85-17.31-16.45-27.91C1.8,110.15,0,98.96,0,87.19s1.8-23.03,5.4-33.59c3.6-10.57,9.09-19.85,16.45-27.87,7.42-8.07,16.6-14.37,27.54-18.91ZM11.61,87.19c0,10.65,1.58,20.57,4.76,29.76,3.17,9.2,7.85,17.15,14.03,23.87,6.18,6.67,13.98,11.99,23.39,15.97,9.41,3.98,20.54,5.97,33.39,5.97s24.05-1.99,33.43-5.97c9.38-3.98,17.17-9.3,23.35-15.97,6.18-6.72,10.86-14.68,14.03-23.87,3.17-9.19,4.76-19.12,4.76-29.76,0-9.46-1.25-18.33-3.75-26.62-2.5-8.28-6.17-15.67-11.01-22.18-2.8,1.88-6.43,4.17-10.89,6.86-4.46,2.69-9.6,5.51-15.41,8.47,.16,.32,.27,.67,.32,1.05,.27,1.61,1.09,3.6,2.46,5.97s3.49,4.46,6.37,6.29c2.88,1.83,6.74,2.74,11.57,2.74,.81,0,1.49,.28,2.06,.85s.85,1.25,.85,2.06-.28,1.49-.85,2.06-1.25,.85-2.06,.85c-5.86,0-10.61-1.13-14.24-3.39-3.63-2.26-6.39-4.89-8.27-7.9-1.88-3.01-3.04-5.67-3.47-7.99-6.45,3.12-13.03,6-19.72,8.63-6.7,2.64-13.48,4.97-20.37,7.02,2.69,2.69,4.8,5.86,6.33,9.52,1.53,3.66,2.3,7.53,2.3,11.61,0,5.59-1.36,10.67-4.07,15.24-2.72,4.57-6.36,8.23-10.93,10.97-4.57,2.74-9.65,4.11-15.24,4.11s-10.67-1.37-15.24-4.11c-4.57-2.74-8.21-6.4-10.93-10.97-2.72-4.57-4.07-9.65-4.07-15.24,0-4.19,.83-8.23,2.5-12.1-5.11,.38-10.19,.54-15.24,.48-.11,1.88-.16,3.79-.16,5.73Zm35.81-20.33c10.97-1.99,21.25-4.56,30.85-7.7,9.6-3.15,18.39-6.53,26.37-10.16,7.99-3.63,14.97-7.15,20.97-10.57,6-3.41,10.82-6.33,14.48-8.75-4.73-4.25-10.06-7.77-15.97-10.57-7.15,6.18-15.08,11.61-23.79,16.29s-17.81,8.55-27.3,11.61c-9.49,3.07-18.99,5.31-28.51,6.73-9.52,1.43-18.66,2-27.42,1.73-1.72,4.57-3.04,9.36-3.95,14.36,11.88,0,23.31-.99,34.28-2.98Zm.97-40.65c-3.39-.21-6.53-.32-9.44-.32-3.06,2.31-5.92,4.87-8.55,7.66-4.36,4.73-7.99,10.14-10.89,16.21,10.81,.16,22.13-.99,33.96-3.47,11.83-2.47,23.2-6.18,34.12-11.13-4.14-2.1-8.71-3.78-13.71-5.04-5-1.26-10.03-2.24-15.08-2.94-3.55-.43-7.02-.75-10.41-.97ZM30.33,93.08c0,4.52,1.1,8.63,3.31,12.34,2.2,3.71,5.15,6.67,8.83,8.87,3.68,2.21,7.78,3.31,12.3,3.31s8.62-1.1,12.3-3.31c3.68-2.2,6.63-5.16,8.83-8.87,2.2-3.71,3.31-7.82,3.31-12.34,0-3.92-.86-7.57-2.58-10.93-1.72-3.36-4.01-6.14-6.86-8.35-2.8,.75-5.59,1.43-8.39,2.02,4.03,.75,7.41,2.74,10.12,5.97,2.71,3.23,4.07,6.96,4.07,11.21,0,4.84-1.71,8.95-5.12,12.34-3.42,3.39-7.51,5.08-12.3,5.08s-8.95-1.69-12.34-5.08c-3.39-3.39-5.08-7.5-5.08-12.34,0-3.07,.71-5.87,2.14-8.43,1.42-2.55,3.32-4.61,5.69-6.17-4.95,.86-9.84,1.53-14.68,2.02-2.37,3.87-3.55,8.09-3.55,12.66ZM106.59,24.92c4-2.58,7.84-5.35,11.49-8.31-4.46-1.61-9.26-2.85-14.4-3.71-5.13-.86-10.63-1.29-16.49-1.29-7.85,0-15.06,.77-21.62,2.3-6.56,1.53-12.47,3.67-17.74,6.41,3.92,.21,7.82,.59,11.7,1.13,5.97,.81,11.99,2.04,18.07,3.71,6.08,1.67,11.56,3.98,16.45,6.94,4.36-2.2,8.54-4.6,12.54-7.18Zm-18.35,113.48c-4.95-1.88-10.38-1.67-16.29,.64-1.51,.65-3,.65-4.48,0-1.48-.64-2.51-1.72-3.11-3.23-.59-1.45-.56-2.92,.08-4.4,.65-1.48,1.69-2.51,3.15-3.11,5.75-2.31,11.34-3.19,16.78-2.62,5.43,.56,10.34,2.31,14.72,5.24,4.38,2.93,7.92,6.76,10.61,11.49,.81,1.4,1,2.88,.56,4.44-.43,1.56-1.34,2.74-2.74,3.55-1.4,.75-2.88,.91-4.44,.48-1.56-.43-2.72-1.34-3.47-2.74-2.63-4.62-6.43-7.88-11.37-9.76Zm12.42-68.96c-3.6,2.85-6.43,6.33-8.47,10.45-2.04,4.11-3.06,8.59-3.06,13.43,0,5.65,1.37,10.77,4.11,15.37,2.74,4.6,6.41,8.27,11.01,11.01,4.6,2.74,9.72,4.11,15.37,4.11s10.7-1.37,15.32-4.11c4.62-2.74,8.31-6.41,11.05-11.01,2.74-4.6,4.11-9.72,4.11-15.37,0-4.68-1.02-9.09-3.06-13.23-1.4,.86-2.93,1.29-4.6,1.29h-1.29c2.04,3.71,3.06,7.69,3.06,11.94,0,4.57-1.1,8.72-3.31,12.46-2.21,3.74-5.18,6.71-8.91,8.91-3.74,2.21-7.86,3.31-12.38,3.31s-8.72-1.1-12.46-3.31c-3.74-2.2-6.71-5.17-8.91-8.91-2.21-3.74-3.31-7.89-3.31-12.46,0-4.14,.93-7.94,2.78-11.41,1.85-3.47,4.37-6.36,7.54-8.67,3.17-2.31,6.75-3.76,10.73-4.36-1.24-1.67-2.29-3.41-3.15-5.24-4.52,1.02-8.58,2.96-12.18,5.81Zm27.95,35.89c3.41-3.39,5.12-7.5,5.12-12.34s-1.71-8.88-5.12-12.3c-3.42-3.41-7.51-5.12-12.3-5.12s-8.97,1.71-12.38,5.12-5.12,7.51-5.12,12.3,1.71,8.95,5.12,12.34c3.41,3.39,7.54,5.08,12.38,5.08s8.88-1.69,12.3-5.08Z"/>
  </g>
</svg>